<svg id="Object" xmlns="http://www.w3.org/2000/svg" viewBox="0 0 1351.06 508.24"><defs><style>.cls-1{fill:#4f29dd}</style></defs><path class="cls-1" d="M184.65 100.85a114 114 0 0 0-57.11 15.35l22.07 38a70 70 0 1 1 35 130.53h-.75a46.39 46.39 0 1 0-13.09 43.14 113.94 113.94 0 1 0 13.84-227z"/><path class="cls-1" d="M135.65 364.16A69.79 69.79 0 1 1 189.51 250l33.91-28a113.77 113.77 0 1 0-4.86 150.27l-32.05-30.11a69.13 69.13 0 0 1-50.86 22zm373.06-5.66q-9 14.89-26.62 23.77t-42.62 8.87q-37.71 0-62.11-18.38t-26.61-51.33h57.67q1.26 12.68 9 20t19.8 7.29q10.46 0 16.48-5.7t6-15.21a19.65 19.65 0 0 0-5.54-14.26 43.46 43.46 0 0 0-13.79-9.35q-8.24-3.65-22.81-8.72a277.29 277.29 0 0 1-34.7-14.1 63.82 63.82 0 0 1-23.13-20.28q-9.67-13.45-9.67-35 0-20 10.14-34.54t28.05-22.34q17.9-7.77 41-7.77 37.4 0 59.42 17.75t24.95 48.8H455q-1.59-11.08-8.08-17.59t-17.59-6.49q-9.51 0-15.37 5.07t-5.86 14.89a18.91 18.91 0 0 0 5.23 13.47 39.8 39.8 0 0 0 13.15 9q7.92 3.48 22.82 8.87 21.54 7.29 35.17 14.42a67.32 67.32 0 0 1 23.45 20.75q9.81 13.63 9.82 35.49a61.73 61.73 0 0 1-9.03 32.62zm141.17-139.42a55.33 55.33 0 0 1 21.55 25v-32h53.87v176.84h-53.87v-32a55.28 55.28 0 0 1-21.55 25q-14.58 9.19-34.86 9.19-21.85 0-39.13-10.93t-27.25-31.53q-10-20.6-10-48.17 0-27.87 10-48.32t27.25-31.37q17.26-10.94 39.13-10.93 20.28.03 34.86 9.22zm-45.47 49.75q-10.62 11.4-10.62 31.68t10.62 31.69q10.61 11.42 28 11.41 17.12 0 28-11.72t10.94-31.38q0-20-10.94-31.53t-28-11.56q-17.41 0-28 11.41zm276.31-42.15q20.13 16.8 25.2 44.36h-50.71q-2.22-10.77-10-17t-19.49-6.18q-9.18 0-13.94 4c-3.17 2.65-4.75 6.39-4.75 11.25q0 8.25 8.71 12.36t27.41 8.24a273.18 273.18 0 0 1 33.27 9.66 55 55 0 0 1 22.5 16q9.51 11.08 9.51 29.78a45.7 45.7 0 0 1-8.24 26.94q-8.25 11.73-23.77 18.38t-36.75 6.65q-35.82 0-57.36-15.84T756 330h52.29q1.26 11.41 9.66 17.43t21.71 6q9.18 0 13.94-4.27a14.41 14.41 0 0 0 4.75-11.25q0-9.2-8.71-13.15t-28.36-8.4a225.2 225.2 0 0 1-32.28-8.88 53.21 53.21 0 0 1-21.87-15.36q-9.2-10.62-9.19-29 0-23.76 18.07-38.5t51-14.73q33.59 0 53.71 16.79z"/><path d="M971.82 298.93v90H943V165.52h71q38.34 0 57.35 17.91t19 49q0 31.37-19.65 48.95t-56.7 17.55zm77.48-35.17q11.57-11.1 11.57-31.37 0-20.92-11.57-31.85t-37.87-10.93h-39.61v85.24h39.61q26.3 0 37.87-11.09zm74.94-112.65q5.38-4.92 14.26-4.92t14.26 4.92a18 18 0 0 1 0 25.66q-5.38 4.92-14.26 4.91t-14.26-4.91a18 18 0 0 1 0-25.66zm28.52 63.89v174h-28.84V215zm141.65 173.92l-66.55-78.27v78.27H1199V154.43h28.84v136.26l65.6-75.73h35.17l-78 86.5 79.85 87.46z"/></svg>